<svg width="3854" height="3000" viewBox="0 0 3854 3000" fill="none" xmlns="http://www.w3.org/2000/svg">
<g clip-path="url(#clip0_35_11)" filter="url(#filter0_i_35_11)">
<path d="M700.405 1054.66L201.202 1851.56L926.694 2338L878.963 2067.31L410.413 1814.67L753.886 1357.96L700.405 1054.66Z" fill="#FFD700"/>
<path d="M1008.58 1000.32L1205.61 965.576L1165.88 2295.83L962.148 2331.75L1008.58 1000.32Z" fill="#FFD700"/>
</g>
<g filter="url(#filter1_di_35_11)">
<path fill-rule="evenodd" clip-rule="evenodd" d="M1546.08 691.317L2190.02 577.774C2356.46 548.426 2538.65 695.856 2558.19 902.735C2595.72 1203.3 2456.62 1291.96 2332.29 1352.7C2100.57 1386.81 1812.5 1444.36 1812.5 1444.36L1838.76 1593.31L1868.21 1760.28L1948.16 2213.7C1948.16 2213.7 2336.55 2158.72 2489.77 2118.2C2577.34 2072.38 2619.32 1943.45 2589.43 1845.77L2732.68 1820.51C2749.13 1913.81 2747.05 2181.21 2542.9 2275.92C2325.14 2341.32 1847.13 2398.61 1847.13 2398.61L1546.08 691.317ZM2199.05 724.708L1701.09 812.511L1784.5 1285.58C1784.5 1285.58 2107.34 1233.72 2282.46 1197.77C2440.28 1143.48 2435.41 1012.15 2420.4 927.031C2401.64 820.633 2344.97 722.607 2199.05 724.708Z" fill="#D19E00"/>
<path fill-rule="evenodd" clip-rule="evenodd" d="M1931.38 275.693C2392.73 131.895 2694.22 397.729 2801.35 718.087C2907.86 994.669 2819.25 1258.4 2791.23 1330.85C2823.74 1387.57 2986.45 1527.66 3018.58 1822.42C3031.13 2228.65 2908.4 2577.73 2368.78 2652.62L1602.06 2787.82L1182.39 407.759L1931.38 275.693ZM2660.83 742.864C2499.06 311.465 2144.04 405.392 1946.39 448.577L1350.2 553.701L1709.26 2590.01L2338.19 2479.11C2717.98 2439.15 2910.2 2244.91 2875.33 1847.68C2806.92 1459.73 2662.78 1448.02 2579.77 1368.14L2580.02 1367.88C2594.41 1353.14 2807.71 1134.57 2660.83 742.864Z" fill="#D19E00"/>
</g>
<g clip-path="url(#clip1_35_11)">
<g filter="url(#filter2_i_35_11)">
<path d="M3118.44 1951.54L3652.8 1148.44L2892.15 668.194L2939.88 938.891L3431.73 1187.42L3064.96 1648.24L3118.44 1951.54Z" fill="#FFD700"/>
</g>
</g>
<defs>
<filter id="filter0_i_35_11" x="36.5664" y="719.374" width="1442.75" height="1974.23" filterUnits="userSpaceOnUse" color-interpolation-filters="sRGB">
<feFlood flood-opacity="0" result="BackgroundImageFix"/>
<feBlend mode="normal" in="SourceGraphic" in2="BackgroundImageFix" result="shape"/>
<feColorMatrix in="SourceAlpha" type="matrix" values="0 0 0 0 0 0 0 0 0 0 0 0 0 0 0 0 0 0 127 0" result="hardAlpha"/>
<feOffset dx="39"/>
<feGaussianBlur stdDeviation="2"/>
<feComposite in2="hardAlpha" operator="arithmetic" k2="-1" k3="1"/>
<feColorMatrix type="matrix" values="0 0 0 0 0 0 0 0 0 0 0 0 0 0 0 0 0 0 0.25 0"/>
<feBlend mode="normal" in2="shape" result="effect1_innerShadow_35_11"/>
</filter>
<filter id="filter1_di_35_11" x="1182.39" y="235.654" width="1863.03" height="2576.16" filterUnits="userSpaceOnUse" color-interpolation-filters="sRGB">
<feFlood flood-opacity="0" result="BackgroundImageFix"/>
<feColorMatrix in="SourceAlpha" type="matrix" values="0 0 0 0 0 0 0 0 0 0 0 0 0 0 0 0 0 0 127 0" result="hardAlpha"/>
<feOffset dx="22" dy="20"/>
<feGaussianBlur stdDeviation="2"/>
<feComposite in2="hardAlpha" operator="out"/>
<feColorMatrix type="matrix" values="0 0 0 0 1 0 0 0 0 0.843137 0 0 0 0 0 0 0 0 0.34 0"/>
<feBlend mode="normal" in2="BackgroundImageFix" result="effect1_dropShadow_35_11"/>
<feBlend mode="normal" in="SourceGraphic" in2="effect1_dropShadow_35_11" result="shape"/>
<feColorMatrix in="SourceAlpha" type="matrix" values="0 0 0 0 0 0 0 0 0 0 0 0 0 0 0 0 0 0 127 0" result="hardAlpha"/>
<feOffset dx="2" dy="42"/>
<feComposite in2="hardAlpha" operator="arithmetic" k2="-1" k3="1"/>
<feColorMatrix type="matrix" values="0 0 0 0 0 0 0 0 0 0 0 0 0 0 0 0 0 0 0.25 0"/>
<feBlend mode="normal" in2="shape" result="effect2_innerShadow_35_11"/>
</filter>
<filter id="filter2_i_35_11" x="2892.15" y="664.194" width="764.648" height="1287.35" filterUnits="userSpaceOnUse" color-interpolation-filters="sRGB">
<feFlood flood-opacity="0" result="BackgroundImageFix"/>
<feBlend mode="normal" in="SourceGraphic" in2="BackgroundImageFix" result="shape"/>
<feColorMatrix in="SourceAlpha" type="matrix" values="0 0 0 0 0 0 0 0 0 0 0 0 0 0 0 0 0 0 127 0" result="hardAlpha"/>
<feOffset dx="49" dy="-6"/>
<feGaussianBlur stdDeviation="2"/>
<feComposite in2="hardAlpha" operator="arithmetic" k2="-1" k3="1"/>
<feColorMatrix type="matrix" values="0 0 0 0 0 0 0 0 0 0 0 0 0 0 0 0 0 0 0.25 0"/>
<feBlend mode="normal" in2="shape" result="effect1_innerShadow_35_11"/>
</filter>
<clipPath id="clip0_35_11">
<rect width="1143" height="1803.15" fill="white" transform="translate(36.5664 917.854) rotate(-10)"/>
</clipPath>
<clipPath id="clip1_35_11">
<rect width="665.7" height="1803.15" fill="white" transform="translate(2848.73 421.992) rotate(-10)"/>
</clipPath>
</defs>
</svg>
